solid unnamed
facet normal -0 -0.99729043 -0.07356457
    outer loop
        vertex 0.5 -0.49939775 -0.024533838
        vertex -0.5 -0.49939775 -0.024533838
        vertex 0.5 -0.4975924 -0.04900857
    endloop
endfacet
facet normal -0 -0.9924795 -0.12241051
    outer loop
        vertex 0.5 -0.4975924 -0.04900857
        vertex -0.5 -0.4975924 -0.04900857
        vertex 0.5 -0.4945883 -0.073365234
    endloop
endfacet
facet normal -0 -0.9924795 -0.12241051
    outer loop
        vertex 0.5 -0.4945883 -0.073365234
        vertex -0.5 -0.4975924 -0.04900857
        vertex -0.5 -0.4945883 -0.073365234
    endloop
endfacet
facet normal -0 -0.98527735 -0.17096367
    outer loop
        vertex 0.5 -0.49039263 -0.09754516
        vertex -0.5 -0.4945883 -0.073365234
        vertex -0.5 -0.49039263 -0.09754516
    endloop
endfacet
facet normal 0 -0.97570223 -0.21910049
    outer loop
        vertex 0.5 -0.48501563 -0.12149009
        vertex 0.5 -0.49039263 -0.09754516
        vertex -0.5 -0.49039263 -0.09754516
    endloop
endfacet
facet normal 0 -0.96377611 -0.26671252
    outer loop
        vertex 0.5 -0.47847018 -0.14514235
        vertex 0.5 -0.48501563 -0.12149009
        vertex -0.5 -0.48501563 -0.12149009
    endloop
endfacet
facet normal 0 -0.96377611 -0.26671252
    outer loop
        vertex -0.5 -0.47847018 -0.14514235
        vertex 0.5 -0.47847018 -0.14514235
        vertex -0.5 -0.48501563 -0.12149009
    endloop
endfacet
facet normal 0 -0.94952792 -0.31368244
    outer loop
        vertex -0.5 -0.47077203 -0.16844492
        vertex 0.5 -0.47077203 -0.16844492
        vertex -0.5 -0.47847018 -0.14514235
    endloop
endfacet
facet normal 0 -0.93299329 -0.35989404
    outer loop
        vertex -0.5 -0.47077203 -0.16844492
        vertex 0.5 -0.46193978 -0.19134173
        vertex 0.5 -0.47077203 -0.16844492
    endloop
endfacet
facet normal 0 -0.91420954 -0.4052417
    outer loop
        vertex -0.5 -0.46193978 -0.19134173
        vertex 0.5 -0.45199466 -0.21377754
        vertex 0.5 -0.46193978 -0.19134173
    endloop
endfacet
facet normal 0 -0.91420954 -0.4052417
    outer loop
        vertex -0.5 -0.46193978 -0.19134173
        vertex -0.5 -0.45199466 -0.21377754
        vertex 0.5 -0.45199466 -0.21377754
    endloop
endfacet
facet normal 0 -0.89322442 -0.4496111
    outer loop
        vertex -0.5 -0.45199466 -0.21377754
        vertex -0.5 -0.44096065 -0.23569837
        vertex 0.5 -0.44096065 -0.23569837
    endloop
endfacet
facet normal -0 -0.87008673 -0.4928987
    outer loop
        vertex 0.5 -0.44096065 -0.23569837
        vertex -0.5 -0.44096065 -0.23569837
        vertex 0.5 -0.4288643 -0.25705138
    endloop
endfacet
facet normal -0 -0.84485346 -0.5349977
    outer loop
        vertex 0.5 -0.4288643 -0.25705138
        vertex -0.5 -0.4288643 -0.25705138
        vertex 0.5 -0.4157348 -0.27778512
    endloop
endfacet
facet normal -0 -0.84485346 -0.5349977
    outer loop
        vertex 0.5 -0.4157348 -0.27778512
        vertex -0.5 -0.4288643 -0.25705138
        vertex -0.5 -0.4157348 -0.27778512
    endloop
endfacet
facet normal -0 -0.81758475 -0.57580823
    outer loop
        vertex 0.5 -0.40160376 -0.29784966
        vertex -0.5 -0.4157348 -0.27778512
        vertex -0.5 -0.40160376 -0.29784966
    endloop
endfacet
facet normal 0 -0.78834677 -0.61523128
    outer loop
        vertex 0.5 -0.38650522 -0.31719667
        vertex 0.5 -0.40160376 -0.29784966
        vertex -0.5 -0.40160376 -0.29784966
    endloop
endfacet
facet normal 0 -0.75720876 -0.65317297
    outer loop
        vertex 0.5 -0.37047556 -0.3357795
        vertex 0.5 -0.38650522 -0.31719667
        vertex -0.5 -0.38650522 -0.31719667
    endloop
endfacet
facet normal 0 -0.75720876 -0.65317297
    outer loop
        vertex -0.5 -0.37047556 -0.3357795
        vertex 0.5 -0.37047556 -0.3357795
        vertex -0.5 -0.38650522 -0.31719667
    endloop
endfacet
facet normal 0 -0.72424668 -0.68954098
    outer loop
        vertex -0.5 -0.35355338 -0.35355338
        vertex 0.5 -0.35355338 -0.35355338
        vertex -0.5 -0.37047556 -0.3357795
    endloop
endfacet
facet normal 0 -0.68954098 -0.72424668
    outer loop
        vertex -0.5 -0.35355338 -0.35355338
        vertex 0.5 -0.3357795 -0.37047556
        vertex 0.5 -0.35355338 -0.35355338
    endloop
endfacet
facet normal 0 -0.65317297 -0.75720876
    outer loop
        vertex -0.5 -0.3357795 -0.37047556
        vertex 0.5 -0.31719667 -0.38650522
        vertex 0.5 -0.3357795 -0.37047556
    endloop
endfacet
facet normal 0 -0.65317297 -0.75720876
    outer loop
        vertex -0.5 -0.3357795 -0.37047556
        vertex -0.5 -0.31719667 -0.38650522
        vertex 0.5 -0.31719667 -0.38650522
    endloop
endfacet
facet normal 0 -0.61523128 -0.78834677
    outer loop
        vertex -0.5 -0.31719667 -0.38650522
        vertex -0.5 -0.29784966 -0.40160376
        vertex 0.5 -0.29784966 -0.40160376
    endloop
endfacet
facet normal -0 -0.57580823 -0.81758475
    outer loop
        vertex 0.5 -0.29784966 -0.40160376
        vertex -0.5 -0.29784966 -0.40160376
        vertex 0.5 -0.27778512 -0.4157348
    endloop
endfacet
facet normal -0 -0.5349977 -0.84485346
    outer loop
        vertex 0.5 -0.27778512 -0.4157348
        vertex -0.5 -0.27778512 -0.4157348
        vertex 0.5 -0.25705138 -0.4288643
    endloop
endfacet
facet normal -0 -0.5349977 -0.84485346
    outer loop
        vertex 0.5 -0.25705138 -0.4288643
        vertex -0.5 -0.27778512 -0.4157348
        vertex -0.5 -0.25705138 -0.4288643
    endloop
endfacet
facet normal -0 -0.4928987 -0.87008673
    outer loop
        vertex 0.5 -0.23569837 -0.44096065
        vertex -0.5 -0.25705138 -0.4288643
        vertex -0.5 -0.23569837 -0.44096065
    endloop
endfacet
facet normal 0 -0.4496111 -0.89322442
    outer loop
        vertex 0.5 -0.21377754 -0.45199466
        vertex 0.5 -0.23569837 -0.44096065
        vertex -0.5 -0.23569837 -0.44096065
    endloop
endfacet
facet normal 0 -0.4052417 -0.91420954
    outer loop
        vertex 0.5 -0.19134173 -0.46193978
        vertex 0.5 -0.21377754 -0.45199466
        vertex -0.5 -0.21377754 -0.45199466
    endloop
endfacet
facet normal 0 -0.4052417 -0.91420954
    outer loop
        vertex -0.5 -0.19134173 -0.46193978
        vertex 0.5 -0.19134173 -0.46193978
        vertex -0.5 -0.21377754 -0.45199466
    endloop
endfacet
facet normal 0 -0.35989404 -0.93299329
    outer loop
        vertex -0.5 -0.16844492 -0.47077203
        vertex 0.5 -0.16844492 -0.47077203
        vertex -0.5 -0.19134173 -0.46193978
    endloop
endfacet
facet normal 0 -0.31368244 -0.94952792
    outer loop
        vertex -0.5 -0.16844492 -0.47077203
        vertex 0.5 -0.14514235 -0.47847018
        vertex 0.5 -0.16844492 -0.47077203
    endloop
endfacet
facet normal 0 -0.26671252 -0.96377611
    outer loop
        vertex -0.5 -0.14514235 -0.47847018
        vertex 0.5 -0.12149009 -0.48501563
        vertex 0.5 -0.14514235 -0.47847018
    endloop
endfacet
facet normal 0 -0.26671252 -0.96377611
    outer loop
        vertex -0.5 -0.14514235 -0.47847018
        vertex -0.5 -0.12149009 -0.48501563
        vertex 0.5 -0.12149009 -0.48501563
    endloop
endfacet
facet normal 0 -0.21910049 -0.97570223
    outer loop
        vertex -0.5 -0.12149009 -0.48501563
        vertex -0.5 -0.09754516 -0.49039263
        vertex 0.5 -0.09754516 -0.49039263
    endloop
endfacet
facet normal -0 -0.17096367 -0.98527735
    outer loop
        vertex 0.5 -0.09754516 -0.49039263
        vertex -0.5 -0.09754516 -0.49039263
        vertex 0.5 -0.073365234 -0.4945883
    endloop
endfacet
facet normal -0 -0.12241051 -0.9924795
    outer loop
        vertex 0.5 -0.073365234 -0.4945883
        vertex -0.5 -0.073365234 -0.4945883
        vertex 0.5 -0.04900857 -0.4975924
    endloop
endfacet
facet normal -0 -0.12241051 -0.9924795
    outer loop
        vertex 0.5 -0.04900857 -0.4975924
        vertex -0.5 -0.073365234 -0.4945883
        vertex -0.5 -0.04900857 -0.4975924
    endloop
endfacet
facet normal -0 -0.07356457 -0.99729043
    outer loop
        vertex 0.5 -0.024533838 -0.49939775
        vertex -0.5 -0.04900857 -0.4975924
        vertex -0.5 -0.024533838 -0.49939775
    endloop
endfacet
facet normal 0 -0.02454015 -0.99969888
    outer loop
        vertex 0.5 -0.00000000000000009184851 -0.5
        vertex 0.5 -0.024533838 -0.49939775
        vertex -0.5 -0.024533838 -0.49939775
    endloop
endfacet
facet normal 0 0.02454015 -0.99969888
    outer loop
        vertex 0.5 0.024533838 -0.49939775
        vertex 0.5 -0.00000000000000009184851 -0.5
        vertex -0.5 -0.00000000000000009184851 -0.5
    endloop
endfacet
facet normal 0 0.02454015 -0.99969888
    outer loop
        vertex -0.5 0.024533838 -0.49939775
        vertex 0.5 0.024533838 -0.49939775
        vertex -0.5 -0.00000000000000009184851 -0.5
    endloop
endfacet
facet normal 0 0.07356457 -0.99729043
    outer loop
        vertex -0.5 0.04900857 -0.4975924
        vertex 0.5 0.04900857 -0.4975924
        vertex -0.5 0.024533838 -0.49939775
    endloop
endfacet
facet normal 0 0.12241051 -0.9924795
    outer loop
        vertex -0.5 0.04900857 -0.4975924
        vertex 0.5 0.073365234 -0.4945883
        vertex 0.5 0.04900857 -0.4975924
    endloop
endfacet
facet normal 0 0.17096367 -0.98527735
    outer loop
        vertex -0.5 0.073365234 -0.4945883
        vertex 0.5 0.09754516 -0.49039263
        vertex 0.5 0.073365234 -0.4945883
    endloop
endfacet
facet normal 0 0.17096367 -0.98527735
    outer loop
        vertex -0.5 0.073365234 -0.4945883
        vertex -0.5 0.09754516 -0.49039263
        vertex 0.5 0.09754516 -0.49039263
    endloop
endfacet
facet normal 0 0.21910049 -0.97570223
    outer loop
        vertex -0.5 0.09754516 -0.49039263
        vertex -0.5 0.12149009 -0.48501563
        vertex 0.5 0.12149009 -0.48501563
    endloop
endfacet
facet normal 0 0.26671252 -0.96377611
    outer loop
        vertex 0.5 0.12149009 -0.48501563
        vertex -0.5 0.12149009 -0.48501563
        vertex 0.5 0.14514235 -0.47847018
    endloop
endfacet
facet normal 0 0.31368244 -0.94952792
    outer loop
        vertex 0.5 0.14514235 -0.47847018
        vertex -0.5 0.14514235 -0.47847018
        vertex 0.5 0.16844492 -0.47077203
    endloop
endfacet
facet normal 0 0.31368244 -0.94952792
    outer loop
        vertex 0.5 0.16844492 -0.47077203
        vertex -0.5 0.14514235 -0.47847018
        vertex -0.5 0.16844492 -0.47077203
    endloop
endfacet
facet normal 0 0.35989404 -0.93299329
    outer loop
        vertex 0.5 0.19134173 -0.46193978
        vertex -0.5 0.16844492 -0.47077203
        vertex -0.5 0.19134173 -0.46193978
    endloop
endfacet
facet normal 0 0.4052417 -0.91420954
    outer loop
        vertex 0.5 0.21377754 -0.45199466
        vertex 0.5 0.19134173 -0.46193978
        vertex -0.5 0.19134173 -0.46193978
    endloop
endfacet
facet normal 0 0.4496111 -0.89322442
    outer loop
        vertex 0.5 0.23569837 -0.44096065
        vertex 0.5 0.21377754 -0.45199466
        vertex -0.5 0.21377754 -0.45199466
    endloop
endfacet
facet normal 0 0.4496111 -0.89322442
    outer loop
        vertex -0.5 0.23569837 -0.44096065
        vertex 0.5 0.23569837 -0.44096065
        vertex -0.5 0.21377754 -0.45199466
    endloop
endfacet
facet normal 0 0.4928987 -0.87008673
    outer loop
        vertex -0.5 0.25705138 -0.4288643
        vertex 0.5 0.25705138 -0.4288643
        vertex -0.5 0.23569837 -0.44096065
    endloop
endfacet
facet normal 0 0.5349977 -0.84485346
    outer loop
        vertex -0.5 0.25705138 -0.4288643
        vertex 0.5 0.27778512 -0.4157348
        vertex 0.5 0.25705138 -0.4288643
    endloop
endfacet
facet normal 0 0.57580823 -0.81758475
    outer loop
        vertex -0.5 0.27778512 -0.4157348
        vertex 0.5 0.29784966 -0.40160376
        vertex 0.5 0.27778512 -0.4157348
    endloop
endfacet
facet normal 0 0.57580823 -0.81758475
    outer loop
        vertex -0.5 0.27778512 -0.4157348
        vertex -0.5 0.29784966 -0.40160376
        vertex 0.5 0.29784966 -0.40160376
    endloop
endfacet
facet normal 0 0.61523128 -0.78834677
    outer loop
        vertex -0.5 0.29784966 -0.40160376
        vertex -0.5 0.31719667 -0.38650522
        vertex 0.5 0.31719667 -0.38650522
    endloop
endfacet
facet normal 0 0.65317297 -0.75720876
    outer loop
        vertex 0.5 0.31719667 -0.38650522
        vertex -0.5 0.31719667 -0.38650522
        vertex 0.5 0.3357795 -0.37047556
    endloop
endfacet
facet normal 0 0.78834677 -0.61523128
    outer loop
        vertex 0.5 0.38650522 -0.31719667
        vertex -0.5 0.38650522 -0.31719667
        vertex 0.5 0.40160376 -0.29784966
    endloop
endfacet
facet normal 0 0.94952792 -0.31368244
    outer loop
        vertex -0.5 0.47077203 -0.16844492
        vertex -0.5 0.47847018 -0.14514235
        vertex 0.5 0.47847018 -0.14514235
    endloop
endfacet
facet normal 0 0.96377611 -0.26671252
    outer loop
        vertex -0.5 0.47847018 -0.14514235
        vertex 0.5 0.48501563 -0.12149009
        vertex 0.5 0.47847018 -0.14514235
    endloop
endfacet
facet normal 0 0.99969888 -0.02454015
    outer loop
        vertex -0.5 0.5 0
        vertex 0.5 0.5 0
        vertex -0.5 0.49939775 -0.024533838
    endloop
endfacet
facet normal 0 0.99969888 -0.02454015
    outer loop
        vertex -0.5 0.49939775 -0.024533838
        vertex 0.5 0.5 0
        vertex 0.5 0.49939775 -0.024533838
    endloop
endfacet
facet normal 0 0.99729043 -0.07356457
    outer loop
        vertex -0.5 0.4975924 -0.04900857
        vertex -0.5 0.49939775 -0.024533838
        vertex 0.5 0.49939775 -0.024533838
    endloop
endfacet
facet normal 0 0.99729043 -0.07356457
    outer loop
        vertex 0.5 0.4975924 -0.04900857
        vertex -0.5 0.4975924 -0.04900857
        vertex 0.5 0.49939775 -0.024533838
    endloop
endfacet
facet normal 0 0.9924795 -0.12241051
    outer loop
        vertex 0.5 0.4975924 -0.04900857
        vertex -0.5 0.4945883 -0.073365234
        vertex -0.5 0.4975924 -0.04900857
    endloop
endfacet
facet normal 0 0.9924795 -0.12241051
    outer loop
        vertex 0.5 0.4975924 -0.04900857
        vertex 0.5 0.4945883 -0.073365234
        vertex -0.5 0.4945883 -0.073365234
    endloop
endfacet
facet normal 0 0.98527735 -0.17096367
    outer loop
        vertex -0.5 0.4945883 -0.073365234
        vertex 0.5 0.4945883 -0.073365234
        vertex -0.5 0.49039263 -0.09754516
    endloop
endfacet
facet normal 0 0.98527735 -0.17096367
    outer loop
        vertex -0.5 0.49039263 -0.09754516
        vertex 0.5 0.4945883 -0.073365234
        vertex 0.5 0.49039263 -0.09754516
    endloop
endfacet
facet normal 0 0.97570223 -0.21910049
    outer loop
        vertex -0.5 0.48501563 -0.12149009
        vertex -0.5 0.49039263 -0.09754516
        vertex 0.5 0.49039263 -0.09754516
    endloop
endfacet
facet normal 0 0.97570223 -0.21910049
    outer loop
        vertex 0.5 0.48501563 -0.12149009
        vertex -0.5 0.48501563 -0.12149009
        vertex 0.5 0.49039263 -0.09754516
    endloop
endfacet
facet normal 0 0.96377611 -0.26671252
    outer loop
        vertex 0.5 0.48501563 -0.12149009
        vertex -0.5 0.47847018 -0.14514235
        vertex -0.5 0.48501563 -0.12149009
    endloop
endfacet
facet normal 0 0.94952792 -0.31368244
    outer loop
        vertex 0.5 0.47847018 -0.14514235
        vertex 0.5 0.47077203 -0.16844492
        vertex -0.5 0.47077203 -0.16844492
    endloop
endfacet
facet normal 0 0.93299329 -0.35989404
    outer loop
        vertex -0.5 0.47077203 -0.16844492
        vertex 0.5 0.47077203 -0.16844492
        vertex -0.5 0.46193978 -0.19134173
    endloop
endfacet
facet normal 0 0.93299329 -0.35989404
    outer loop
        vertex -0.5 0.46193978 -0.19134173
        vertex 0.5 0.47077203 -0.16844492
        vertex 0.5 0.46193978 -0.19134173
    endloop
endfacet
facet normal 0 0.91420954 -0.4052417
    outer loop
        vertex -0.5 0.45199466 -0.21377754
        vertex -0.5 0.46193978 -0.19134173
        vertex 0.5 0.46193978 -0.19134173
    endloop
endfacet
facet normal 0 0.91420954 -0.4052417
    outer loop
        vertex 0.5 0.45199466 -0.21377754
        vertex -0.5 0.45199466 -0.21377754
        vertex 0.5 0.46193978 -0.19134173
    endloop
endfacet
facet normal 0 0.89322442 -0.4496111
    outer loop
        vertex 0.5 0.45199466 -0.21377754
        vertex -0.5 0.44096065 -0.23569837
        vertex -0.5 0.45199466 -0.21377754
    endloop
endfacet
facet normal 0 0.89322442 -0.4496111
    outer loop
        vertex 0.5 0.45199466 -0.21377754
        vertex 0.5 0.44096065 -0.23569837
        vertex -0.5 0.44096065 -0.23569837
    endloop
endfacet
facet normal 0 0.87008673 -0.4928987
    outer loop
        vertex -0.5 0.44096065 -0.23569837
        vertex 0.5 0.44096065 -0.23569837
        vertex -0.5 0.4288643 -0.25705138
    endloop
endfacet
facet normal 0 0.87008673 -0.4928987
    outer loop
        vertex -0.5 0.4288643 -0.25705138
        vertex 0.5 0.44096065 -0.23569837
        vertex 0.5 0.4288643 -0.25705138
    endloop
endfacet
facet normal 0 0.84485346 -0.5349977
    outer loop
        vertex -0.5 0.4157348 -0.27778512
        vertex -0.5 0.4288643 -0.25705138
        vertex 0.5 0.4288643 -0.25705138
    endloop
endfacet
facet normal 0 0.84485346 -0.5349977
    outer loop
        vertex 0.5 0.4157348 -0.27778512
        vertex -0.5 0.4157348 -0.27778512
        vertex 0.5 0.4288643 -0.25705138
    endloop
endfacet
facet normal 0 0.81758475 -0.57580823
    outer loop
        vertex 0.5 0.4157348 -0.27778512
        vertex -0.5 0.40160376 -0.29784966
        vertex -0.5 0.4157348 -0.27778512
    endloop
endfacet
facet normal 0 0.81758475 -0.57580823
    outer loop
        vertex 0.5 0.4157348 -0.27778512
        vertex 0.5 0.40160376 -0.29784966
        vertex -0.5 0.40160376 -0.29784966
    endloop
endfacet
facet normal 0 0.78834677 -0.61523128
    outer loop
        vertex -0.5 0.40160376 -0.29784966
        vertex 0.5 0.40160376 -0.29784966
        vertex -0.5 0.38650522 -0.31719667
    endloop
endfacet
facet normal 0 0.75720876 -0.65317297
    outer loop
        vertex -0.5 0.38650522 -0.31719667
        vertex 0.5 0.38650522 -0.31719667
        vertex -0.5 0.37047556 -0.3357795
    endloop
endfacet
facet normal 0 0.75720876 -0.65317297
    outer loop
        vertex -0.5 0.37047556 -0.3357795
        vertex 0.5 0.38650522 -0.31719667
        vertex 0.5 0.37047556 -0.3357795
    endloop
endfacet
facet normal 0 0.72424668 -0.68954098
    outer loop
        vertex -0.5 0.35355338 -0.35355338
        vertex -0.5 0.37047556 -0.3357795
        vertex 0.5 0.37047556 -0.3357795
    endloop
endfacet
facet normal 0 0.72424668 -0.68954098
    outer loop
        vertex 0.5 0.35355338 -0.35355338
        vertex -0.5 0.35355338 -0.35355338
        vertex 0.5 0.37047556 -0.3357795
    endloop
endfacet
facet normal 0 0.68954098 -0.72424668
    outer loop
        vertex 0.5 0.35355338 -0.35355338
        vertex -0.5 0.3357795 -0.37047556
        vertex -0.5 0.35355338 -0.35355338
    endloop
endfacet
facet normal 0 0.68954098 -0.72424668
    outer loop
        vertex 0.5 0.35355338 -0.35355338
        vertex 0.5 0.3357795 -0.37047556
        vertex -0.5 0.3357795 -0.37047556
    endloop
endfacet
facet normal 0 0.65317297 -0.75720876
    outer loop
        vertex -0.5 0.3357795 -0.37047556
        vertex 0.5 0.3357795 -0.37047556
        vertex -0.5 0.31719667 -0.38650522
    endloop
endfacet
facet normal 0 -0.99969888 -0.02454015
    outer loop
        vertex -0.5 -0.49939775 -0.024533838
        vertex 0.5 -0.49939775 -0.024533838
        vertex 0.5 -0.5 0.00000000000000006123234
    endloop
endfacet
facet normal 0 0.61523128 -0.78834677
    outer loop
        vertex -0.5 0.29784966 -0.40160376
        vertex 0.5 0.31719667 -0.38650522
        vertex 0.5 0.29784966 -0.40160376
    endloop
endfacet
facet normal 0 0.5349977 -0.84485346
    outer loop
        vertex -0.5 0.27778512 -0.4157348
        vertex 0.5 0.27778512 -0.4157348
        vertex -0.5 0.25705138 -0.4288643
    endloop
endfacet
facet normal 0 0.4928987 -0.87008673
    outer loop
        vertex 0.5 0.25705138 -0.4288643
        vertex 0.5 0.23569837 -0.44096065
        vertex -0.5 0.23569837 -0.44096065
    endloop
endfacet
facet normal 0 0.4052417 -0.91420954
    outer loop
        vertex 0.5 0.21377754 -0.45199466
        vertex -0.5 0.19134173 -0.46193978
        vertex -0.5 0.21377754 -0.45199466
    endloop
endfacet
facet normal 0 0.35989404 -0.93299329
    outer loop
        vertex 0.5 0.16844492 -0.47077203
        vertex -0.5 0.16844492 -0.47077203
        vertex 0.5 0.19134173 -0.46193978
    endloop
endfacet
facet normal 0 0.26671252 -0.96377611
    outer loop
        vertex -0.5 0.12149009 -0.48501563
        vertex -0.5 0.14514235 -0.47847018
        vertex 0.5 0.14514235 -0.47847018
    endloop
endfacet
facet normal 0 0.21910049 -0.97570223
    outer loop
        vertex -0.5 0.09754516 -0.49039263
        vertex 0.5 0.12149009 -0.48501563
        vertex 0.5 0.09754516 -0.49039263
    endloop
endfacet
facet normal 0 0.12241051 -0.9924795
    outer loop
        vertex -0.5 0.073365234 -0.4945883
        vertex 0.5 0.073365234 -0.4945883
        vertex -0.5 0.04900857 -0.4975924
    endloop
endfacet
facet normal 0 0.07356457 -0.99729043
    outer loop
        vertex 0.5 0.04900857 -0.4975924
        vertex 0.5 0.024533838 -0.49939775
        vertex -0.5 0.024533838 -0.49939775
    endloop
endfacet
facet normal -0 -0.02454015 -0.99969888
    outer loop
        vertex 0.5 -0.00000000000000009184851 -0.5
        vertex -0.5 -0.024533838 -0.49939775
        vertex -0.5 -0.00000000000000009184851 -0.5
    endloop
endfacet
facet normal -0 -0.07356457 -0.99729043
    outer loop
        vertex 0.5 -0.04900857 -0.4975924
        vertex -0.5 -0.04900857 -0.4975924
        vertex 0.5 -0.024533838 -0.49939775
    endloop
endfacet
facet normal 0 -0.17096367 -0.98527735
    outer loop
        vertex -0.5 -0.09754516 -0.49039263
        vertex -0.5 -0.073365234 -0.4945883
        vertex 0.5 -0.073365234 -0.4945883
    endloop
endfacet
facet normal 0 -0.21910049 -0.97570223
    outer loop
        vertex -0.5 -0.12149009 -0.48501563
        vertex 0.5 -0.09754516 -0.49039263
        vertex 0.5 -0.12149009 -0.48501563
    endloop
endfacet
facet normal 0 -0.31368244 -0.94952792
    outer loop
        vertex -0.5 -0.14514235 -0.47847018
        vertex 0.5 -0.14514235 -0.47847018
        vertex -0.5 -0.16844492 -0.47077203
    endloop
endfacet
facet normal 0 -0.35989404 -0.93299329
    outer loop
        vertex 0.5 -0.16844492 -0.47077203
        vertex 0.5 -0.19134173 -0.46193978
        vertex -0.5 -0.19134173 -0.46193978
    endloop
endfacet
facet normal -0 -0.4496111 -0.89322442
    outer loop
        vertex 0.5 -0.21377754 -0.45199466
        vertex -0.5 -0.23569837 -0.44096065
        vertex -0.5 -0.21377754 -0.45199466
    endloop
endfacet
facet normal -0 -0.4928987 -0.87008673
    outer loop
        vertex 0.5 -0.25705138 -0.4288643
        vertex -0.5 -0.25705138 -0.4288643
        vertex 0.5 -0.23569837 -0.44096065
    endloop
endfacet
facet normal 0 -0.57580823 -0.81758475
    outer loop
        vertex -0.5 -0.29784966 -0.40160376
        vertex -0.5 -0.27778512 -0.4157348
        vertex 0.5 -0.27778512 -0.4157348
    endloop
endfacet
facet normal 0 -0.61523128 -0.78834677
    outer loop
        vertex -0.5 -0.31719667 -0.38650522
        vertex 0.5 -0.29784966 -0.40160376
        vertex 0.5 -0.31719667 -0.38650522
    endloop
endfacet
facet normal 0 -0.68954098 -0.72424668
    outer loop
        vertex -0.5 -0.3357795 -0.37047556
        vertex 0.5 -0.3357795 -0.37047556
        vertex -0.5 -0.35355338 -0.35355338
    endloop
endfacet
facet normal 0 -0.72424668 -0.68954098
    outer loop
        vertex 0.5 -0.35355338 -0.35355338
        vertex 0.5 -0.37047556 -0.3357795
        vertex -0.5 -0.37047556 -0.3357795
    endloop
endfacet
facet normal -0 -0.78834677 -0.61523128
    outer loop
        vertex 0.5 -0.38650522 -0.31719667
        vertex -0.5 -0.40160376 -0.29784966
        vertex -0.5 -0.38650522 -0.31719667
    endloop
endfacet
facet normal -0 -0.81758475 -0.57580823
    outer loop
        vertex 0.5 -0.4157348 -0.27778512
        vertex -0.5 -0.4157348 -0.27778512
        vertex 0.5 -0.40160376 -0.29784966
    endloop
endfacet
facet normal 0 -0.87008673 -0.4928987
    outer loop
        vertex -0.5 -0.44096065 -0.23569837
        vertex -0.5 -0.4288643 -0.25705138
        vertex 0.5 -0.4288643 -0.25705138
    endloop
endfacet
facet normal 0 -0.89322442 -0.4496111
    outer loop
        vertex -0.5 -0.45199466 -0.21377754
        vertex 0.5 -0.44096065 -0.23569837
        vertex 0.5 -0.45199466 -0.21377754
    endloop
endfacet
facet normal 0 -0.93299329 -0.35989404
    outer loop
        vertex -0.5 -0.46193978 -0.19134173
        vertex 0.5 -0.46193978 -0.19134173
        vertex -0.5 -0.47077203 -0.16844492
    endloop
endfacet
facet normal 0 -0.94952792 -0.31368244
    outer loop
        vertex 0.5 -0.47077203 -0.16844492
        vertex 0.5 -0.47847018 -0.14514235
        vertex -0.5 -0.47847018 -0.14514235
    endloop
endfacet
facet normal -0 -0.97570223 -0.21910049
    outer loop
        vertex 0.5 -0.48501563 -0.12149009
        vertex -0.5 -0.49039263 -0.09754516
        vertex -0.5 -0.48501563 -0.12149009
    endloop
endfacet
facet normal -0 -0.98527735 -0.17096367
    outer loop
        vertex 0.5 -0.4945883 -0.073365234
        vertex -0.5 -0.4945883 -0.073365234
        vertex 0.5 -0.49039263 -0.09754516
    endloop
endfacet
facet normal 0 -0.99969888 -0.02454015
    outer loop
        vertex -0.5 -0.49939775 -0.024533838
        vertex 0.5 -0.5 0.00000000000000006123234
        vertex -0.5 -0.5 0.00000000000000006123234
    endloop
endfacet
facet normal -0 -0.99729043 -0.07356457
    outer loop
        vertex 0.5 -0.4975924 -0.04900857
        vertex -0.5 -0.49939775 -0.024533838
        vertex -0.5 -0.4975924 -0.04900857
    endloop
endfacet
facet normal -1 0 0
    outer loop
        vertex -0.5 0.4975924 -0.04900857
        vertex -0.5 0.5 0
        vertex -0.5 0.49939775 -0.024533838
    endloop
endfacet
facet normal -1 0 0
    outer loop
        vertex -0.5 0.4945883 -0.073365234
        vertex -0.5 0.5 0
        vertex -0.5 0.4975924 -0.04900857
    endloop
endfacet
facet normal -1 0 0
    outer loop
        vertex -0.5 0.49039263 -0.09754516
        vertex -0.5 0.5 0
        vertex -0.5 0.4945883 -0.073365234
    endloop
endfacet
facet normal -1 0 0
    outer loop
        vertex -0.5 0.48501563 -0.12149009
        vertex -0.5 0.5 0
        vertex -0.5 0.49039263 -0.09754516
    endloop
endfacet
facet normal -1 0 0
    outer loop
        vertex -0.5 0.47847018 -0.14514235
        vertex -0.5 0.5 0
        vertex -0.5 0.48501563 -0.12149009
    endloop
endfacet
facet normal -1 0 0
    outer loop
        vertex -0.5 0.47077203 -0.16844492
        vertex -0.5 0.5 0
        vertex -0.5 0.47847018 -0.14514235
    endloop
endfacet
facet normal -0.99999994 0 0
    outer loop
        vertex -0.5 0.46193978 -0.19134173
        vertex -0.5 0.5 0
        vertex -0.5 0.47077203 -0.16844492
    endloop
endfacet
facet normal -1 0 0
    outer loop
        vertex -0.5 0.45199466 -0.21377754
        vertex -0.5 0.5 0
        vertex -0.5 0.46193978 -0.19134173
    endloop
endfacet
facet normal -0.99999994 0 0
    outer loop
        vertex -0.5 0.44096065 -0.23569837
        vertex -0.5 0.5 0
        vertex -0.5 0.45199466 -0.21377754
    endloop
endfacet
facet normal -1 0 0
    outer loop
        vertex -0.5 0.4288643 -0.25705138
        vertex -0.5 0.5 0
        vertex -0.5 0.44096065 -0.23569837
    endloop
endfacet
facet normal -1 0 0
    outer loop
        vertex -0.5 0.4157348 -0.27778512
        vertex -0.5 0.5 0
        vertex -0.5 0.4288643 -0.25705138
    endloop
endfacet
facet normal -1 0 0
    outer loop
        vertex -0.5 0.40160376 -0.29784966
        vertex -0.5 0.5 0
        vertex -0.5 0.4157348 -0.27778512
    endloop
endfacet
facet normal -1 0 0
    outer loop
        vertex -0.5 0.38650522 -0.31719667
        vertex -0.5 0.5 0
        vertex -0.5 0.40160376 -0.29784966
    endloop
endfacet
facet normal -0.99999994 0 0
    outer loop
        vertex -0.5 0.37047556 -0.3357795
        vertex -0.5 0.5 0
        vertex -0.5 0.38650522 -0.31719667
    endloop
endfacet
facet normal -1 0 0
    outer loop
        vertex -0.5 0.35355338 -0.35355338
        vertex -0.5 0.5 0
        vertex -0.5 0.37047556 -0.3357795
    endloop
endfacet
facet normal -1 0 0
    outer loop
        vertex -0.5 0.3357795 -0.37047556
        vertex -0.5 0.5 0
        vertex -0.5 0.35355338 -0.35355338
    endloop
endfacet
facet normal -0.99999994 0 0
    outer loop
        vertex -0.5 0.31719667 -0.38650522
        vertex -0.5 0.5 0
        vertex -0.5 0.3357795 -0.37047556
    endloop
endfacet
facet normal -1 0 0
    outer loop
        vertex -0.5 0.29784966 -0.40160376
        vertex -0.5 0.5 0
        vertex -0.5 0.31719667 -0.38650522
    endloop
endfacet
facet normal -1 0 0
    outer loop
        vertex -0.5 0.27778512 -0.4157348
        vertex -0.5 0.5 0
        vertex -0.5 0.29784966 -0.40160376
    endloop
endfacet
facet normal -1 0 0
    outer loop
        vertex -0.5 0.25705138 -0.4288643
        vertex -0.5 0.5 0
        vertex -0.5 0.27778512 -0.4157348
    endloop
endfacet
facet normal -1 0 0
    outer loop
        vertex -0.5 0.23569837 -0.44096065
        vertex -0.5 0.5 0
        vertex -0.5 0.25705138 -0.4288643
    endloop
endfacet
facet normal -1 0 0
    outer loop
        vertex -0.5 0.21377754 -0.45199466
        vertex -0.5 0.5 0
        vertex -0.5 0.23569837 -0.44096065
    endloop
endfacet
facet normal -1 0 0
    outer loop
        vertex -0.5 0.19134173 -0.46193978
        vertex -0.5 0.5 0
        vertex -0.5 0.21377754 -0.45199466
    endloop
endfacet
facet normal -0.99999994 -0 0
    outer loop
        vertex -0.5 0.16844492 -0.47077203
        vertex -0.5 0.14514235 -0.47847018
        vertex -0.5 0.5 0
    endloop
endfacet
facet normal -1 0 0
    outer loop
        vertex -0.5 0.16844492 -0.47077203
        vertex -0.5 0.5 0
        vertex -0.5 0.19134173 -0.46193978
    endloop
endfacet
facet normal -1 -0 0
    outer loop
        vertex -0.5 0.14514235 -0.47847018
        vertex -0.5 0.12149009 -0.48501563
        vertex -0.5 0.5 0
    endloop
endfacet
facet normal -1 -0 0
    outer loop
        vertex -0.5 0.12149009 -0.48501563
        vertex -0.5 0.09754516 -0.49039263
        vertex -0.5 0.5 0
    endloop
endfacet
facet normal -1 -0 0
    outer loop
        vertex -0.5 0.09754516 -0.49039263
        vertex -0.5 0.073365234 -0.4945883
        vertex -0.5 0.5 0
    endloop
endfacet
facet normal -1 -0 0
    outer loop
        vertex -0.5 0.073365234 -0.4945883
        vertex -0.5 0.04900857 -0.4975924
        vertex -0.5 0.5 0
    endloop
endfacet
facet normal -1 -0 0
    outer loop
        vertex -0.5 0.04900857 -0.4975924
        vertex -0.5 0.024533838 -0.49939775
        vertex -0.5 0.5 0
    endloop
endfacet
facet normal -1 -0 0
    outer loop
        vertex -0.5 0.024533838 -0.49939775
        vertex -0.5 -0.00000000000000009184851 -0.5
        vertex -0.5 0.5 0
    endloop
endfacet
facet normal -1 0 0
    outer loop
        vertex -0.5 -0.00000000000000009184851 -0.5
        vertex -0.5 -0.024533838 -0.49939775
        vertex -0.5 0.5 0
    endloop
endfacet
facet normal -1 0 0
    outer loop
        vertex -0.5 -0.024533838 -0.49939775
        vertex -0.5 -0.04900857 -0.4975924
        vertex -0.5 0.5 0
    endloop
endfacet
facet normal -0.99999994 0 0
    outer loop
        vertex -0.5 -0.04900857 -0.4975924
        vertex -0.5 -0.073365234 -0.4945883
        vertex -0.5 0.5 0
    endloop
endfacet
facet normal -1 0 0
    outer loop
        vertex -0.5 0.5 0
        vertex -0.5 -0.073365234 -0.4945883
        vertex -0.5 -0.09754516 -0.49039263
    endloop
endfacet
facet normal -1 0 0
    outer loop
        vertex -0.5 0.5 0
        vertex -0.5 -0.09754516 -0.49039263
        vertex -0.5 -0.12149009 -0.48501563
    endloop
endfacet
facet normal -1 0 0
    outer loop
        vertex -0.5 0.5 0
        vertex -0.5 -0.12149009 -0.48501563
        vertex -0.5 -0.14514235 -0.47847018
    endloop
endfacet
facet normal -1 0 0
    outer loop
        vertex -0.5 0.5 0
        vertex -0.5 -0.14514235 -0.47847018
        vertex -0.5 -0.16844492 -0.47077203
    endloop
endfacet
facet normal -1 0 0
    outer loop
        vertex -0.5 0.5 0
        vertex -0.5 -0.16844492 -0.47077203
        vertex -0.5 -0.19134173 -0.46193978
    endloop
endfacet
facet normal -1 0 0
    outer loop
        vertex -0.5 0.5 0
        vertex -0.5 -0.19134173 -0.46193978
        vertex -0.5 -0.21377754 -0.45199466
    endloop
endfacet
facet normal -1 0 0
    outer loop
        vertex -0.5 0.5 0
        vertex -0.5 -0.21377754 -0.45199466
        vertex -0.5 -0.23569837 -0.44096065
    endloop
endfacet
facet normal -1 0 0
    outer loop
        vertex -0.5 0.5 0
        vertex -0.5 -0.23569837 -0.44096065
        vertex -0.5 -0.25705138 -0.4288643
    endloop
endfacet
facet normal -1 0 0
    outer loop
        vertex -0.5 0.5 0
        vertex -0.5 -0.25705138 -0.4288643
        vertex -0.5 -0.27778512 -0.4157348
    endloop
endfacet
facet normal -1 0 0
    outer loop
        vertex -0.5 0.5 0
        vertex -0.5 -0.27778512 -0.4157348
        vertex -0.5 -0.29784966 -0.40160376
    endloop
endfacet
facet normal -1 0 0
    outer loop
        vertex -0.5 0.5 0
        vertex -0.5 -0.29784966 -0.40160376
        vertex -0.5 -0.31719667 -0.38650522
    endloop
endfacet
facet normal -1 0 0
    outer loop
        vertex -0.5 0.5 0
        vertex -0.5 -0.31719667 -0.38650522
        vertex -0.5 -0.3357795 -0.37047556
    endloop
endfacet
facet normal -1 0 0
    outer loop
        vertex -0.5 0.5 0
        vertex -0.5 -0.3357795 -0.37047556
        vertex -0.5 -0.35355338 -0.35355338
    endloop
endfacet
facet normal -0.99999994 0 0
    outer loop
        vertex -0.5 0.5 0
        vertex -0.5 -0.35355338 -0.35355338
        vertex -0.5 -0.37047556 -0.3357795
    endloop
endfacet
facet normal -0.99999994 0 0
    outer loop
        vertex -0.5 0.5 0
        vertex -0.5 -0.37047556 -0.3357795
        vertex -0.5 -0.38650522 -0.31719667
    endloop
endfacet
facet normal -1 0 0
    outer loop
        vertex -0.5 0.5 0
        vertex -0.5 -0.38650522 -0.31719667
        vertex -0.5 -0.40160376 -0.29784966
    endloop
endfacet
facet normal -1 0 0
    outer loop
        vertex -0.5 0.5 0
        vertex -0.5 -0.40160376 -0.29784966
        vertex -0.5 -0.4157348 -0.27778512
    endloop
endfacet
facet normal -1 0 0
    outer loop
        vertex -0.5 0.5 0
        vertex -0.5 -0.4157348 -0.27778512
        vertex -0.5 -0.4288643 -0.25705138
    endloop
endfacet
facet normal -0.99999994 0 0
    outer loop
        vertex -0.5 -0.45199466 -0.21377754
        vertex -0.5 0.5 0
        vertex -0.5 -0.44096065 -0.23569837
    endloop
endfacet
facet normal -1 0 0
    outer loop
        vertex -0.5 0.5 0
        vertex -0.5 -0.4288643 -0.25705138
        vertex -0.5 -0.44096065 -0.23569837
    endloop
endfacet
facet normal -1 0 0
    outer loop
        vertex -0.5 -0.46193978 -0.19134173
        vertex -0.5 0.5 0
        vertex -0.5 -0.45199466 -0.21377754
    endloop
endfacet
facet normal -1 0 0
    outer loop
        vertex -0.5 -0.47077203 -0.16844492
        vertex -0.5 0.5 0
        vertex -0.5 -0.46193978 -0.19134173
    endloop
endfacet
facet normal -1 0 0
    outer loop
        vertex -0.5 -0.47847018 -0.14514235
        vertex -0.5 0.5 0
        vertex -0.5 -0.47077203 -0.16844492
    endloop
endfacet
facet normal -1 0 0
    outer loop
        vertex -0.5 -0.48501563 -0.12149009
        vertex -0.5 0.5 0
        vertex -0.5 -0.47847018 -0.14514235
    endloop
endfacet
facet normal -1 0 0
    outer loop
        vertex -0.5 -0.49039263 -0.09754516
        vertex -0.5 0.5 0
        vertex -0.5 -0.48501563 -0.12149009
    endloop
endfacet
facet normal -0.99999994 0 0
    outer loop
        vertex -0.5 -0.4945883 -0.073365234
        vertex -0.5 0.5 0
        vertex -0.5 -0.49039263 -0.09754516
    endloop
endfacet
facet normal -1 0 0
    outer loop
        vertex -0.5 -0.4975924 -0.04900857
        vertex -0.5 0.5 0
        vertex -0.5 -0.4945883 -0.073365234
    endloop
endfacet
facet normal -1 0 0
    outer loop
        vertex -0.5 -0.49939775 -0.024533838
        vertex -0.5 -0.5 0.00000000000000006123234
        vertex -0.5 0.5 0
    endloop
endfacet
facet normal -1 0 0
    outer loop
        vertex -0.5 0.5 0
        vertex -0.5 -0.5 0.00000000000000006123234
        vertex -0.5 -0.46193978 0.19134173
    endloop
endfacet
facet normal -0.99999994 0 -0
    outer loop
        vertex -0.5 -0.19134173 0.46193978
        vertex -0.5 0.5 0
        vertex -0.5 -0.35355338 0.35355338
    endloop
endfacet
facet normal -0.99999994 0 0
    outer loop
        vertex -0.5 0.5 0
        vertex -0.5 -0.46193978 0.19134173
        vertex -0.5 -0.35355338 0.35355338
    endloop
endfacet
facet normal -1 0 0
    outer loop
        vertex -0.5 -0.19134173 0.46193978
        vertex -0.5 0.00000000000000003061617 0.5
        vertex -0.5 0.5 0
    endloop
endfacet
facet normal -1 0 0
    outer loop
        vertex -0.5 0.5 0
        vertex -0.5 0.19134173 0.46193978
        vertex -0.5 0.35355338 0.35355338
    endloop
endfacet
facet normal -1 0 0
    outer loop
        vertex -0.5 0.00000000000000003061617 0.5
        vertex -0.5 0.19134173 0.46193978
        vertex -0.5 0.5 0
    endloop
endfacet
facet normal -1 0 0
    outer loop
        vertex -0.5 0.5 0
        vertex -0.5 -0.4975924 -0.04900857
        vertex -0.5 -0.49939775 -0.024533838
    endloop
endfacet
facet normal -0.99999994 -0 -0
    outer loop
        vertex -0.5 0.46193978 0.19134173
        vertex -0.5 0.5 0
        vertex -0.5 0.35355338 0.35355338
    endloop
endfacet
facet normal 1 0 0
    outer loop
        vertex 0.5 0.4975924 -0.04900857
        vertex 0.5 0.49939775 -0.024533838
        vertex 0.5 0.5 0
    endloop
endfacet
facet normal 1 0 0
    outer loop
        vertex 0.5 0.4945883 -0.073365234
        vertex 0.5 0.4975924 -0.04900857
        vertex 0.5 0.5 0
    endloop
endfacet
facet normal 1 0 0
    outer loop
        vertex 0.5 0.49039263 -0.09754516
        vertex 0.5 0.4945883 -0.073365234
        vertex 0.5 0.5 0
    endloop
endfacet
facet normal 1 0 0
    outer loop
        vertex 0.5 0.48501563 -0.12149009
        vertex 0.5 0.49039263 -0.09754516
        vertex 0.5 0.5 0
    endloop
endfacet
facet normal 1 0 0
    outer loop
        vertex 0.5 0.47847018 -0.14514235
        vertex 0.5 0.48501563 -0.12149009
        vertex 0.5 0.5 0
    endloop
endfacet
facet normal 1 0 0
    outer loop
        vertex 0.5 0.47077203 -0.16844492
        vertex 0.5 0.47847018 -0.14514235
        vertex 0.5 0.5 0
    endloop
endfacet
facet normal 0.99999994 0 0
    outer loop
        vertex 0.5 0.46193978 -0.19134173
        vertex 0.5 0.47077203 -0.16844492
        vertex 0.5 0.5 0
    endloop
endfacet
facet normal 1 0 0
    outer loop
        vertex 0.5 0.45199466 -0.21377754
        vertex 0.5 0.46193978 -0.19134173
        vertex 0.5 0.5 0
    endloop
endfacet
facet normal 0.99999994 0 0
    outer loop
        vertex 0.5 0.44096065 -0.23569837
        vertex 0.5 0.45199466 -0.21377754
        vertex 0.5 0.5 0
    endloop
endfacet
facet normal 1 0 0
    outer loop
        vertex 0.5 0.4288643 -0.25705138
        vertex 0.5 0.44096065 -0.23569837
        vertex 0.5 0.5 0
    endloop
endfacet
facet normal 1 0 0
    outer loop
        vertex 0.5 0.4157348 -0.27778512
        vertex 0.5 0.4288643 -0.25705138
        vertex 0.5 0.5 0
    endloop
endfacet
facet normal 1 0 0
    outer loop
        vertex 0.5 0.40160376 -0.29784966
        vertex 0.5 0.4157348 -0.27778512
        vertex 0.5 0.5 0
    endloop
endfacet
facet normal 1 0 0
    outer loop
        vertex 0.5 0.38650522 -0.31719667
        vertex 0.5 0.40160376 -0.29784966
        vertex 0.5 0.5 0
    endloop
endfacet
facet normal 0.99999994 0 0
    outer loop
        vertex 0.5 0.37047556 -0.3357795
        vertex 0.5 0.38650522 -0.31719667
        vertex 0.5 0.5 0
    endloop
endfacet
facet normal 1 0 0
    outer loop
        vertex 0.5 0.35355338 -0.35355338
        vertex 0.5 0.37047556 -0.3357795
        vertex 0.5 0.5 0
    endloop
endfacet
facet normal 1 0 0
    outer loop
        vertex 0.5 0.3357795 -0.37047556
        vertex 0.5 0.35355338 -0.35355338
        vertex 0.5 0.5 0
    endloop
endfacet
facet normal 0.99999994 0 0
    outer loop
        vertex 0.5 0.31719667 -0.38650522
        vertex 0.5 0.3357795 -0.37047556
        vertex 0.5 0.5 0
    endloop
endfacet
facet normal 1 0 0
    outer loop
        vertex 0.5 0.29784966 -0.40160376
        vertex 0.5 0.31719667 -0.38650522
        vertex 0.5 0.5 0
    endloop
endfacet
facet normal 1 0 0
    outer loop
        vertex 0.5 0.27778512 -0.4157348
        vertex 0.5 0.29784966 -0.40160376
        vertex 0.5 0.5 0
    endloop
endfacet
facet normal 1 0 0
    outer loop
        vertex 0.5 0.25705138 -0.4288643
        vertex 0.5 0.27778512 -0.4157348
        vertex 0.5 0.5 0
    endloop
endfacet
facet normal 1 0 0
    outer loop
        vertex 0.5 0.23569837 -0.44096065
        vertex 0.5 0.25705138 -0.4288643
        vertex 0.5 0.5 0
    endloop
endfacet
facet normal 1 0 0
    outer loop
        vertex 0.5 0.21377754 -0.45199466
        vertex 0.5 0.23569837 -0.44096065
        vertex 0.5 0.5 0
    endloop
endfacet
facet normal 1 0 0
    outer loop
        vertex 0.5 0.19134173 -0.46193978
        vertex 0.5 0.21377754 -0.45199466
        vertex 0.5 0.5 0
    endloop
endfacet
facet normal 0.99999994 0 -0
    outer loop
        vertex 0.5 0.16844492 -0.47077203
        vertex 0.5 0.5 0
        vertex 0.5 0.14514235 -0.47847018
    endloop
endfacet
facet normal 1 0 0
    outer loop
        vertex 0.5 0.16844492 -0.47077203
        vertex 0.5 0.19134173 -0.46193978
        vertex 0.5 0.5 0
    endloop
endfacet
facet normal 1 0 -0
    outer loop
        vertex 0.5 0.14514235 -0.47847018
        vertex 0.5 0.5 0
        vertex 0.5 0.12149009 -0.48501563
    endloop
endfacet
facet normal 1 0 -0
    outer loop
        vertex 0.5 0.12149009 -0.48501563
        vertex 0.5 0.5 0
        vertex 0.5 0.09754516 -0.49039263
    endloop
endfacet
facet normal 1 0 -0
    outer loop
        vertex 0.5 0.09754516 -0.49039263
        vertex 0.5 0.5 0
        vertex 0.5 0.073365234 -0.4945883
    endloop
endfacet
facet normal 1 0 -0
    outer loop
        vertex 0.5 0.073365234 -0.4945883
        vertex 0.5 0.5 0
        vertex 0.5 0.04900857 -0.4975924
    endloop
endfacet
facet normal 1 0 -0
    outer loop
        vertex 0.5 0.04900857 -0.4975924
        vertex 0.5 0.5 0
        vertex 0.5 0.024533838 -0.49939775
    endloop
endfacet
facet normal 1 0 -0
    outer loop
        vertex 0.5 0.024533838 -0.49939775
        vertex 0.5 0.5 0
        vertex 0.5 -0.00000000000000009184851 -0.5
    endloop
endfacet
facet normal 1 0 -0
    outer loop
        vertex 0.5 -0.00000000000000009184851 -0.5
        vertex 0.5 0.5 0
        vertex 0.5 -0.024533838 -0.49939775
    endloop
endfacet
facet normal 1 0 -0
    outer loop
        vertex 0.5 -0.024533838 -0.49939775
        vertex 0.5 0.5 0
        vertex 0.5 -0.04900857 -0.4975924
    endloop
endfacet
facet normal 0.99999994 0 -0
    outer loop
        vertex 0.5 -0.04900857 -0.4975924
        vertex 0.5 0.5 0
        vertex 0.5 -0.073365234 -0.4945883
    endloop
endfacet
facet normal 1 0 0
    outer loop
        vertex 0.5 0.5 0
        vertex 0.5 -0.09754516 -0.49039263
        vertex 0.5 -0.073365234 -0.4945883
    endloop
endfacet
facet normal 1 0 0
    outer loop
        vertex 0.5 0.5 0
        vertex 0.5 -0.12149009 -0.48501563
        vertex 0.5 -0.09754516 -0.49039263
    endloop
endfacet
facet normal 1 0 0
    outer loop
        vertex 0.5 0.5 0
        vertex 0.5 -0.14514235 -0.47847018
        vertex 0.5 -0.12149009 -0.48501563
    endloop
endfacet
facet normal 1 0 0
    outer loop
        vertex 0.5 0.5 0
        vertex 0.5 -0.16844492 -0.47077203
        vertex 0.5 -0.14514235 -0.47847018
    endloop
endfacet
facet normal 1 0 0
    outer loop
        vertex 0.5 0.5 0
        vertex 0.5 -0.19134173 -0.46193978
        vertex 0.5 -0.16844492 -0.47077203
    endloop
endfacet
facet normal 1 0 0
    outer loop
        vertex 0.5 0.5 0
        vertex 0.5 -0.21377754 -0.45199466
        vertex 0.5 -0.19134173 -0.46193978
    endloop
endfacet
facet normal 1 0 0
    outer loop
        vertex 0.5 0.5 0
        vertex 0.5 -0.23569837 -0.44096065
        vertex 0.5 -0.21377754 -0.45199466
    endloop
endfacet
facet normal 1 0 0
    outer loop
        vertex 0.5 0.5 0
        vertex 0.5 -0.25705138 -0.4288643
        vertex 0.5 -0.23569837 -0.44096065
    endloop
endfacet
facet normal 1 0 0
    outer loop
        vertex 0.5 0.5 0
        vertex 0.5 -0.27778512 -0.4157348
        vertex 0.5 -0.25705138 -0.4288643
    endloop
endfacet
facet normal 1 0 0
    outer loop
        vertex 0.5 0.5 0
        vertex 0.5 -0.29784966 -0.40160376
        vertex 0.5 -0.27778512 -0.4157348
    endloop
endfacet
facet normal 1 0 0
    outer loop
        vertex 0.5 0.5 0
        vertex 0.5 -0.31719667 -0.38650522
        vertex 0.5 -0.29784966 -0.40160376
    endloop
endfacet
facet normal 1 0 0
    outer loop
        vertex 0.5 0.5 0
        vertex 0.5 -0.3357795 -0.37047556
        vertex 0.5 -0.31719667 -0.38650522
    endloop
endfacet
facet normal 1 0 0
    outer loop
        vertex 0.5 0.5 0
        vertex 0.5 -0.35355338 -0.35355338
        vertex 0.5 -0.3357795 -0.37047556
    endloop
endfacet
facet normal 0.99999994 0 0
    outer loop
        vertex 0.5 0.5 0
        vertex 0.5 -0.37047556 -0.3357795
        vertex 0.5 -0.35355338 -0.35355338
    endloop
endfacet
facet normal 0.99999994 0 0
    outer loop
        vertex 0.5 0.5 0
        vertex 0.5 -0.38650522 -0.31719667
        vertex 0.5 -0.37047556 -0.3357795
    endloop
endfacet
facet normal 1 0 0
    outer loop
        vertex 0.5 0.5 0
        vertex 0.5 -0.40160376 -0.29784966
        vertex 0.5 -0.38650522 -0.31719667
    endloop
endfacet
facet normal 1 0 0
    outer loop
        vertex 0.5 0.5 0
        vertex 0.5 -0.4157348 -0.27778512
        vertex 0.5 -0.40160376 -0.29784966
    endloop
endfacet
facet normal 1 0 0
    outer loop
        vertex 0.5 0.5 0
        vertex 0.5 -0.4288643 -0.25705138
        vertex 0.5 -0.4157348 -0.27778512
    endloop
endfacet
facet normal 0.99999994 -0 0
    outer loop
        vertex 0.5 -0.45199466 -0.21377754
        vertex 0.5 -0.44096065 -0.23569837
        vertex 0.5 0.5 0
    endloop
endfacet
facet normal 1 0 0
    outer loop
        vertex 0.5 0.5 0
        vertex 0.5 -0.44096065 -0.23569837
        vertex 0.5 -0.4288643 -0.25705138
    endloop
endfacet
facet normal 1 -0 0
    outer loop
        vertex 0.5 -0.46193978 -0.19134173
        vertex 0.5 -0.45199466 -0.21377754
        vertex 0.5 0.5 0
    endloop
endfacet
facet normal 1 -0 0
    outer loop
        vertex 0.5 -0.47077203 -0.16844492
        vertex 0.5 -0.46193978 -0.19134173
        vertex 0.5 0.5 0
    endloop
endfacet
facet normal 1 -0 0
    outer loop
        vertex 0.5 -0.47847018 -0.14514235
        vertex 0.5 -0.47077203 -0.16844492
        vertex 0.5 0.5 0
    endloop
endfacet
facet normal 1 -0 0
    outer loop
        vertex 0.5 -0.48501563 -0.12149009
        vertex 0.5 -0.47847018 -0.14514235
        vertex 0.5 0.5 0
    endloop
endfacet
facet normal 1 -0 0
    outer loop
        vertex 0.5 -0.49039263 -0.09754516
        vertex 0.5 -0.48501563 -0.12149009
        vertex 0.5 0.5 0
    endloop
endfacet
facet normal 0.99999994 -0 0
    outer loop
        vertex 0.5 -0.4945883 -0.073365234
        vertex 0.5 -0.49039263 -0.09754516
        vertex 0.5 0.5 0
    endloop
endfacet
facet normal 1 -0 0
    outer loop
        vertex 0.5 -0.4975924 -0.04900857
        vertex 0.5 -0.4945883 -0.073365234
        vertex 0.5 0.5 0
    endloop
endfacet
facet normal 1 0 -0
    outer loop
        vertex 0.5 -0.49939775 -0.024533838
        vertex 0.5 0.5 0
        vertex 0.5 -0.5 0.00000000000000006123234
    endloop
endfacet
facet normal 1 0 0
    outer loop
        vertex 0.5 0.5 0
        vertex 0.5 -0.46193978 0.19134173
        vertex 0.5 -0.5 0.00000000000000006123234
    endloop
endfacet
facet normal 0.99999994 0 0
    outer loop
        vertex 0.5 -0.19134173 0.46193978
        vertex 0.5 -0.35355338 0.35355338
        vertex 0.5 0.5 0
    endloop
endfacet
facet normal 0.99999994 0 0
    outer loop
        vertex 0.5 0.5 0
        vertex 0.5 -0.35355338 0.35355338
        vertex 0.5 -0.46193978 0.19134173
    endloop
endfacet
facet normal 1 -0 0
    outer loop
        vertex 0.5 -0.19134173 0.46193978
        vertex 0.5 0.5 0
        vertex 0.5 0.00000000000000003061617 0.5
    endloop
endfacet
facet normal 1 0 0
    outer loop
        vertex 0.5 0.5 0
        vertex 0.5 0.35355338 0.35355338
        vertex 0.5 0.19134173 0.46193978
    endloop
endfacet
facet normal 1 0 0
    outer loop
        vertex 0.5 0.00000000000000003061617 0.5
        vertex 0.5 0.5 0
        vertex 0.5 0.19134173 0.46193978
    endloop
endfacet
facet normal 1 0 0
    outer loop
        vertex 0.5 0.5 0
        vertex 0.5 -0.49939775 -0.024533838
        vertex 0.5 -0.4975924 -0.04900857
    endloop
endfacet
facet normal 0.99999994 0 0
    outer loop
        vertex 0.5 0.46193978 0.19134173
        vertex 0.5 0.35355338 0.35355338
        vertex 0.5 0.5 0
    endloop
endfacet
facet normal 0 -0.83146948 0.5555703
    outer loop
        vertex -0.5 -0.46193978 0.19134173
        vertex 0.5 -0.46193978 0.19134173
        vertex -0.5 -0.35355338 0.35355338
    endloop
endfacet
facet normal 0 -0.5555703 0.83146948
    outer loop
        vertex -0.5 -0.35355338 0.35355338
        vertex 0.5 -0.35355338 0.35355338
        vertex -0.5 -0.19134173 0.46193978
    endloop
endfacet
facet normal 0 -0.5555703 0.83146948
    outer loop
        vertex -0.5 -0.19134173 0.46193978
        vertex 0.5 -0.35355338 0.35355338
        vertex 0.5 -0.19134173 0.46193978
    endloop
endfacet
facet normal 0 -0.19509023 0.98078531
    outer loop
        vertex -0.5 0.00000000000000003061617 0.5
        vertex 0.5 -0.19134173 0.46193978
        vertex 0.5 0.00000000000000003061617 0.5
    endloop
endfacet
facet normal 0 0.19509023 0.98078531
    outer loop
        vertex -0.5 0.19134173 0.46193978
        vertex -0.5 0.00000000000000003061617 0.5
        vertex 0.5 0.00000000000000003061617 0.5
    endloop
endfacet
facet normal 0 0.5555703 0.83146948
    outer loop
        vertex -0.5 0.35355338 0.35355338
        vertex -0.5 0.19134173 0.46193978
        vertex 0.5 0.19134173 0.46193978
    endloop
endfacet
facet normal 0 0.5555703 0.83146948
    outer loop
        vertex 0.5 0.35355338 0.35355338
        vertex -0.5 0.35355338 0.35355338
        vertex 0.5 0.19134173 0.46193978
    endloop
endfacet
facet normal 0 -0.98078531 0.19509023
    outer loop
        vertex -0.5 -0.46193978 0.19134173
        vertex -0.5 -0.5 0.00000000000000006123234
        vertex 0.5 -0.46193978 0.19134173
    endloop
endfacet
facet normal 0 0.98078531 0.19509023
    outer loop
        vertex 0.5 0.5 0
        vertex -0.5 0.5 0
        vertex 0.5 0.46193978 0.19134173
    endloop
endfacet
facet normal 0 0.98078531 0.19509023
    outer loop
        vertex 0.5 0.46193978 0.19134173
        vertex -0.5 0.5 0
        vertex -0.5 0.46193978 0.19134173
    endloop
endfacet
facet normal 0 0.83146948 0.5555703
    outer loop
        vertex 0.5 0.35355338 0.35355338
        vertex 0.5 0.46193978 0.19134173
        vertex -0.5 0.46193978 0.19134173
    endloop
endfacet
facet normal -0 0.83146948 0.5555703
    outer loop
        vertex -0.5 0.35355338 0.35355338
        vertex 0.5 0.35355338 0.35355338
        vertex -0.5 0.46193978 0.19134173
    endloop
endfacet
facet normal -0 0.19509023 0.98078531
    outer loop
        vertex -0.5 0.19134173 0.46193978
        vertex 0.5 0.00000000000000003061617 0.5
        vertex 0.5 0.19134173 0.46193978
    endloop
endfacet
facet normal 0 -0.19509023 0.98078531
    outer loop
        vertex -0.5 -0.19134173 0.46193978
        vertex 0.5 -0.19134173 0.46193978
        vertex -0.5 0.00000000000000003061617 0.5
    endloop
endfacet
facet normal 0 -0.98078531 0.19509023
    outer loop
        vertex 0.5 -0.46193978 0.19134173
        vertex -0.5 -0.5 0.00000000000000006123234
        vertex 0.5 -0.5 0.00000000000000006123234
    endloop
endfacet
facet normal 0 -0.83146948 0.5555703
    outer loop
        vertex -0.5 -0.35355338 0.35355338
        vertex 0.5 -0.46193978 0.19134173
        vertex 0.5 -0.35355338 0.35355338
    endloop
endfacet
endsolid unnamed
